<?xml version="1.0" encoding="UTF-8" standalone="no"?>
<!-- Created with Inkscape (http://www.inkscape.org/) -->

<svg
   xmlns:dc="http://purl.org/dc/elements/1.1/"
   xmlns:cc="http://creativecommons.org/ns#"
   xmlns:rdf="http://www.w3.org/1999/02/22-rdf-syntax-ns#"
   xmlns:svg="http://www.w3.org/2000/svg"
   xmlns="http://www.w3.org/2000/svg"
   xmlns:sodipodi="http://sodipodi.sourceforge.net/DTD/sodipodi-0.dtd"
   xmlns:inkscape="http://www.inkscape.org/namespaces/inkscape"
   width="48"
   height="48"
   viewBox="0 0 12.7 12.7"
   version="1.1"
   id="svg8"
   inkscape:version="0.92.3 (2405546, 2018-03-11)"
   sodipodi:docname="favicon.svg">
  <defs
     id="defs2" />
  <sodipodi:namedview
     id="base"
     pagecolor="#ffffff"
     bordercolor="#666666"
     borderopacity="1.0"
     inkscape:pageopacity="1"
     inkscape:pageshadow="2"
     inkscape:zoom="15.839192"
     inkscape:cx="11.69052"
     inkscape:cy="27.568755"
     inkscape:document-units="mm"
     inkscape:current-layer="layer1"
     showgrid="false"
     units="px"
     inkscape:window-width="2560"
     inkscape:window-height="1377"
     inkscape:window-x="1912"
     inkscape:window-y="-8"
     inkscape:window-maximized="1"
     inkscape:pagecheckerboard="false" />
  <metadata
     id="metadata5">
    <rdf:RDF>
      <cc:Work
         rdf:about="">
        <dc:format>image/svg+xml</dc:format>
        <dc:type
           rdf:resource="http://purl.org/dc/dcmitype/StillImage" />
        <dc:title></dc:title>
      </cc:Work>
    </rdf:RDF>
  </metadata>
  <g
     inkscape:label="Ebene 1"
     inkscape:groupmode="layer"
     id="layer1"
     transform="translate(0,-284.3)"
     style="opacity:1">
    <text
       xml:space="preserve"
       style="font-style:normal;font-variant:normal;font-weight:normal;font-stretch:normal;font-size:4.58611107px;line-height:1.25;font-family:'Segoe MDL2 Assets';-inkscape-font-specification:'Segoe MDL2 Assets';letter-spacing:0px;word-spacing:0px;fill:#000000;fill-opacity:1;stroke:none;stroke-width:0.26458332"
       x="3.541321"
       y="290.4686"
       id="text3719"><tspan
         sodipodi:role="line"
         id="tspan3717"
         x="3.541321"
         y="295.62796"
         style="font-style:normal;font-variant:normal;font-weight:normal;font-stretch:normal;font-size:14.11111069px;font-family:'Copperplate Gothic Bold';-inkscape-font-specification:'Copperplate Gothic Bold, ';stroke-width:0.26458332" /></text>
    <g
       aria-label="L"
       style="font-style:normal;font-weight:normal;font-size:4.58611107px;line-height:1.25;font-family:sans-serif;letter-spacing:0px;word-spacing:0px;fill:#007bff;fill-opacity:1;stroke:none;stroke-width:0.26458332"
       id="text3723">
      <path
         d="m 8.0585008,296.68957 q -0.7110677,0 -1.8520832,-0.0331 -1.4882812,-0.0331 -1.8520833,-0.0413 l -2.4722003,-0.0331 q -0.3720703,0.008 -1.06660155,-0.0331 -0.23977864,-0.0413 -0.23977864,-0.25631 0,-0.90124 0.0248047,-2.69545 0.0330729,-1.80247 0.0330729,-2.70371 0,-0.95911 -0.0578776,-2.86907 -0.0578776,-1.91823 -0.0578776,-2.87735 0,-0.1819 0.24804686,-0.1819 0.24804683,0 0.73587233,0.0248 0.4960938,0.0248 0.7358724,0.0248 0.2728515,0 0.8102864,-0.0248 0.5374349,-0.0331 0.8102864,-0.0331 0.1240235,0 0.1157552,0.1571 l -0.00827,0.10749 q -0.099219,1.55442 -0.2232422,4.67155 l -0.00827,2.18281 q 0,1.05833 0.00827,1.54616 0.00827,0.0992 0.016536,0.19844 0.00827,0.0992 0.1240234,0.12402 0.00827,0 0.214974,0 0.7441405,0 2.2241535,-0.0744 1.4882812,-0.0827 2.2324217,-0.0827 0.2232422,0 0.2232422,0.19017 0,1.41387 -0.2067057,2.43913 -0.041341,0.21497 -0.1736328,0.25631 -0.041341,0.0165 -0.3389974,0.0165 z"
         style="font-style:normal;font-variant:normal;font-weight:normal;font-stretch:normal;font-size:16.93333244px;font-family:'Berlin Sans FB Demi';-inkscape-font-specification:'Berlin Sans FB Demi';fill:#007bff;fill-opacity:1;stroke-width:0.26458332"
         id="path4534" />
    </g>
    <g
       aria-label="G"
       style="font-style:normal;font-weight:normal;font-size:4.58611107px;line-height:1.25;font-family:sans-serif;letter-spacing:0px;word-spacing:0px;fill:#ffc107;fill-opacity:1;stroke:none;stroke-width:0.26458332"
       id="text3727">
      <path
         d="m 11.785571,294.02269 q 0.0096,0.13023 -0.135047,0.13023 -0.09164,0 -0.530545,-0.10611 -0.434082,-0.10611 -0.535368,-0.1447 -1.008035,0.3955 -1.9340767,0.3955 -1.4903484,0 -2.4453288,-0.99356 -0.9453343,-0.9791 -0.9453343,-2.47427 0,-1.52894 0.9163955,-2.53697 0.9453342,-1.0418 2.4549751,-1.0418 0.7331163,0 1.3794162,0.27974 0.699354,0.30868 1.099675,0.86817 0.08199,0.11575 0.08199,0.16398 0,0.15434 -0.434082,0.69454 -0.429259,0.53536 -0.554661,0.53536 -0.02894,0 -0.2218638,-0.19774 -0.2363335,-0.23634 -0.4823134,-0.36656 -0.3665581,-0.19775 -0.8102864,-0.19775 -0.7234701,0 -1.1479059,0.54019 -0.395497,0.49678 -0.395497,1.23955 0,0.78617 0.4099664,1.24436 0.4244358,0.47267 1.2009603,0.47267 0.4919597,0 1.0996746,-0.24598 -0.014469,-0.15916 -0.086816,-0.81029 -0.062701,-0.5016 -0.062701,-0.81028 0,-0.0916 0.062701,-0.11093 0.024116,-0.01 0.07717,-0.01 0.1398709,0 0.4196125,0.0289 0.284565,0.0241 0.429259,0.0241 0.15434,0 0.463021,-0.0193 0.30868,-0.0241 0.463021,-0.0241 0.120578,0 0.120578,0.15916 0,0.23151 -0.02894,0.69935 -0.02412,0.46785 -0.02412,0.69936 0,0.62218 0.09164,1.86173 z"
         style="font-style:normal;font-variant:normal;font-weight:normal;font-stretch:normal;font-size:9.87777805px;font-family:'Berlin Sans FB Demi';-inkscape-font-specification:'Berlin Sans FB Demi';fill:#ffc107;fill-opacity:1;stroke-width:0.26458332"
         id="path4539" />
    </g>
  </g>
</svg>
