<?xml version="1.0" encoding="UTF-8" standalone="no"?>
<!-- Created with Inkscape (http://www.inkscape.org/) -->

<svg
   xmlns:dc="http://purl.org/dc/elements/1.1/"
   xmlns:cc="http://creativecommons.org/ns#"
   xmlns:rdf="http://www.w3.org/1999/02/22-rdf-syntax-ns#"
   xmlns:svg="http://www.w3.org/2000/svg"
   xmlns="http://www.w3.org/2000/svg"
   xmlns:sodipodi="http://sodipodi.sourceforge.net/DTD/sodipodi-0.dtd"
   xmlns:inkscape="http://www.inkscape.org/namespaces/inkscape"
   width="107.53543"
   height="42"
   viewBox="0 0 28.452071 11.112503"
   version="1.1"
   id="svg8"
   inkscape:version="0.92.3 (2405546, 2018-03-11)"
   sodipodi:docname="logo.svg">
  <defs
     id="defs2" />
  <sodipodi:namedview
     id="base"
     pagecolor="#ffffff"
     bordercolor="#666666"
     borderopacity="1.0"
     inkscape:pageopacity="1"
     inkscape:pageshadow="2"
     inkscape:zoom="11.2"
     inkscape:cx="73.002607"
     inkscape:cy="29.606794"
     inkscape:document-units="mm"
     inkscape:current-layer="layer1"
     showgrid="false"
     units="px"
     inkscape:window-width="2560"
     inkscape:window-height="1377"
     inkscape:window-x="1912"
     inkscape:window-y="-8"
     inkscape:window-maximized="1"
     inkscape:pagecheckerboard="false" />
  <metadata
     id="metadata5">
    <rdf:RDF>
      <cc:Work
         rdf:about="">
        <dc:format>image/svg+xml</dc:format>
        <dc:type
           rdf:resource="http://purl.org/dc/dcmitype/StillImage" />
        <dc:title></dc:title>
      </cc:Work>
    </rdf:RDF>
  </metadata>
  <g
     inkscape:label="Ebene 1"
     inkscape:groupmode="layer"
     id="layer1"
     transform="translate(0,-285.88738)"
     style="display:inline;opacity:1">
    <text
       xml:space="preserve"
       style="font-style:normal;font-variant:normal;font-weight:normal;font-stretch:normal;font-size:4.58611107px;line-height:1.25;font-family:'Segoe MDL2 Assets';-inkscape-font-specification:'Segoe MDL2 Assets';letter-spacing:0px;word-spacing:0px;fill:#000000;fill-opacity:1;stroke:none;stroke-width:0.26458332"
       x="3.541321"
       y="290.4686"
       id="text3719"><tspan
         sodipodi:role="line"
         id="tspan3717"
         x="3.541321"
         y="295.62796"
         style="font-style:normal;font-variant:normal;font-weight:normal;font-stretch:normal;font-size:14.11111069px;font-family:'Copperplate Gothic Bold';-inkscape-font-specification:'Copperplate Gothic Bold, ';stroke-width:0.26458332" /></text>
    <g
       aria-label="L"
       style="font-style:normal;font-weight:normal;font-size:4.58611107px;line-height:1.25;font-family:sans-serif;letter-spacing:0px;word-spacing:0px;fill:#007bff;fill-opacity:1;stroke:none;stroke-width:0.26458332"
       id="text3723"
       transform="matrix(0.96147391,0,0,0.92550136,0.20893985,22.339216)">
      <path
         d="m 8.0585008,296.68957 q -0.7110677,0 -1.8520832,-0.0331 -1.4882812,-0.0331 -1.8520833,-0.0413 l -2.4722003,-0.0331 q -0.3720703,0.008 -1.06660155,-0.0331 -0.23977864,-0.0413 -0.23977864,-0.25631 0,-0.90124 0.0248047,-2.69545 0.0330729,-1.80247 0.0330729,-2.70371 0,-0.95911 -0.0578776,-2.86907 -0.0578776,-1.91823 -0.0578776,-2.87735 0,-0.1819 0.24804686,-0.1819 0.24804683,0 0.73587233,0.0248 0.4960938,0.0248 0.7358724,0.0248 0.2728515,0 0.8102864,-0.0248 0.5374349,-0.0331 0.8102864,-0.0331 0.1240235,0 0.1157552,0.1571 l -0.00827,0.10749 q -0.099219,1.55442 -0.2232422,4.67155 l -0.00827,2.18281 q 0,1.05833 0.00827,1.54616 0.00827,0.0992 0.016536,0.19844 0.00827,0.0992 0.1240234,0.12402 0.00827,0 0.214974,0 0.7441405,0 2.2241535,-0.0744 1.4882812,-0.0827 2.2324217,-0.0827 0.2232422,0 0.2232422,0.19017 0,1.41387 -0.2067057,2.43913 -0.041341,0.21497 -0.1736328,0.25631 -0.041341,0.0165 -0.3389974,0.0165 z"
         style="font-style:normal;font-variant:normal;font-weight:normal;font-stretch:normal;font-size:16.93333244px;font-family:'Berlin Sans FB Demi';-inkscape-font-specification:'Berlin Sans FB Demi';fill:#007bff;fill-opacity:1;stroke-width:0.26458332"
         id="path4534"
         inkscape:connector-curvature="0" />
    </g>
    <g
       aria-label="IO"
       transform="matrix(0.96742589,0,0,1.0336709,-0.09449405,0.94494047)"
       style="font-style:normal;font-variant:normal;font-weight:normal;font-stretch:normal;font-size:1.87913775px;line-height:1.25;font-family:'Berlin Sans FB Demi';-inkscape-font-specification:'Berlin Sans FB Demi';letter-spacing:0px;word-spacing:0px;fill:#007bff;fill-opacity:1;stroke:none;stroke-width:0.10841179"
       id="text839">
      <path
         d="m 10.042038,284.78626 q 0,0.24391 0.0124,0.7338 0.0124,0.48989 0.0124,0.73381 0,0.0413 -0.0186,0.0517 -0.0041,0.002 -0.053744,0.008 -0.1343587,0.0165 -0.359668,0.0165 -0.3017904,0 -0.3844727,-0.0165 -0.059945,-0.0124 -0.059945,-0.0641 0,0.0331 0.018603,-0.3638 0.037207,-0.83716 0.037207,-1.09967 0,-0.22118 -0.014469,-0.66353 -0.014469,-0.44235 -0.014469,-0.66352 0,-0.0455 0.047542,-0.0455 0.064079,0 0.1922364,0.006 0.1302246,0.006 0.1943034,0.006 0.064079,0 0.1881022,-0.006 0.1260905,-0.006 0.1901697,-0.006 0.05995,0 0.05995,0.0455 0,0.22117 -0.02481,0.66352 -0.02274,0.44235 -0.02274,0.66353 z"
         style="font-size:4.23333359px;fill:#007bff;fill-opacity:1;stroke-width:0.10841179"
         id="path857"
         inkscape:connector-curvature="0" />
      <path
         d="m 13.338995,284.86687 q 0,0.64492 -0.411344,1.08107 -0.419613,0.44235 -1.062468,0.44235 -0.638721,0 -1.0604,-0.44648 -0.413412,-0.43615 -0.413412,-1.07694 0,-0.64285 0.413412,-1.08107 0.421679,-0.44855 1.0604,-0.44855 0.634587,0 1.058333,0.44855 0.415479,0.44235 0.415479,1.08107 z m -0.783415,-0.004 q 0,-0.31006 -0.188102,-0.5271 -0.196371,-0.22738 -0.502295,-0.22738 -0.291455,0 -0.494027,0.23565 -0.19637,0.22737 -0.19637,0.52296 0,0.31626 0.183968,0.5271 0.194303,0.22118 0.506429,0.22118 0.291455,0 0.496094,-0.23358 0.194303,-0.22324 0.194303,-0.51883 z"
         style="font-size:4.23333359px;fill:#007bff;fill-opacity:1;stroke-width:0.10841179"
         id="path859"
         inkscape:connector-curvature="0" />
    </g>
  </g>
  <g
     inkscape:groupmode="layer"
     id="layer2"
     inkscape:label="Ebene 2"
     style="display:inline"
     transform="translate(0,-5.8874449)">
    <g
       aria-label="G"
       style="font-style:normal;font-weight:normal;font-size:4.58611107px;line-height:1.25;font-family:sans-serif;letter-spacing:0px;word-spacing:0px;display:inline;opacity:1;fill:#ffc107;fill-opacity:1;stroke:none;stroke-width:0.26458332"
       id="text3727"
       transform="matrix(1.027254,0,0,1.0402696,-0.46296091,-291.99484)">
      <path
         d="m 11.785571,294.02269 q 0.0096,0.13023 -0.135047,0.13023 -0.09164,0 -0.530545,-0.10611 -0.434082,-0.10611 -0.535368,-0.1447 -1.008035,0.3955 -1.9340767,0.3955 -1.4903484,0 -2.4453288,-0.99356 -0.9453343,-0.9791 -0.9453343,-2.47427 0,-1.52894 0.9163955,-2.53697 0.9453342,-1.0418 2.4549751,-1.0418 0.7331163,0 1.3794162,0.27974 0.699354,0.30868 1.099675,0.86817 0.08199,0.11575 0.08199,0.16398 0,0.15434 -0.434082,0.69454 -0.429259,0.53536 -0.554661,0.53536 -0.02894,0 -0.2218638,-0.19774 -0.2363335,-0.23634 -0.4823134,-0.36656 -0.3665581,-0.19775 -0.8102864,-0.19775 -0.7234701,0 -1.1479059,0.54019 -0.395497,0.49678 -0.395497,1.23955 0,0.78617 0.4099664,1.24436 0.4244358,0.47267 1.2009603,0.47267 0.4919597,0 1.0996746,-0.24598 -0.014469,-0.15916 -0.086816,-0.81029 -0.062701,-0.5016 -0.062701,-0.81028 0,-0.0916 0.062701,-0.11093 0.024116,-0.01 0.07717,-0.01 0.1398709,0 0.4196122,0.0289 0.284565,0.0241 0.429259,0.0241 0.15434,0 0.463021,-0.0193 0.30868,-0.0241 0.463021,-0.0241 0.120578,0 0.120578,0.15916 0,0.23151 -0.02894,0.69935 -0.02412,0.46785 -0.02412,0.69936 0,0.62218 0.09164,1.86173 z"
         style="font-style:normal;font-variant:normal;font-weight:normal;font-stretch:normal;font-size:9.87777805px;font-family:'Berlin Sans FB Demi';-inkscape-font-specification:'Berlin Sans FB Demi';fill:#ffc107;fill-opacity:1;stroke-width:0.26458332"
         id="path4539"
         inkscape:connector-curvature="0" />
    </g>
    <g
       aria-label="ames"
       style="font-style:normal;font-variant:normal;font-weight:normal;font-stretch:normal;font-size:4.58611107px;line-height:1.25;font-family:'Berlin Sans FB Demi';-inkscape-font-specification:'Berlin Sans FB Demi';letter-spacing:0px;word-spacing:0px;fill:#ffc107;fill-opacity:1;stroke:none;stroke-width:0.26458332"
       id="text846"
       transform="translate(-0.09449405,0.94494047)">
      <path
         d="m 15.49604,11.214207 q 0,0.265273 0.03101,0.788927 0.03101,0.523655 0.03101,0.785482 0,0.137804 -0.120578,0.148139 -0.427192,0.03101 -0.978407,0.03101 -0.06546,0 -0.08957,-0.19637 -0.02067,-0.199816 -0.05168,-0.203261 -0.02756,0.01378 -0.07235,0.05857 -0.385851,0.389295 -0.826823,0.389295 -0.671793,0 -1.112766,-0.530544 -0.416856,-0.496094 -0.416856,-1.185113 0,-0.795817 0.430637,-1.281576 0.447862,-0.5029835 1.226454,-0.5029835 0.54088,0 0.854383,0.3789605 0.01378,0.017225 0.02412,0.017225 0.03101,0 0.0689,-0.1653645 0.04134,-0.1688097 0.09646,-0.1688097 0.127468,0 0.485758,0.072347 0.341065,0.068902 0.489204,0.1171332 0.05168,0.020671 0.05168,0.055122 0,0.01378 -0.01034,0.072347 -0.110243,0.623562 -0.110243,1.319471 z m -1.109321,0.02067 q 0,-0.292833 -0.186035,-0.482313 -0.18259,-0.192926 -0.478868,-0.192926 -0.296279,0 -0.478869,0.189481 -0.18259,0.18948 -0.18259,0.485758 0,0.279053 0.192926,0.478868 0.192925,0.199816 0.468533,0.199816 0.292833,0 0.478868,-0.18948 0.186035,-0.192926 0.186035,-0.489204 z"
         style="font-size:7.05555534px;fill:#ffc107;fill-opacity:1;stroke-width:0.26458332"
         id="path848"
         inkscape:connector-curvature="0" />
      <path
         d="m 21.686876,12.809287 q 0,0.120578 -0.103353,0.134358 -0.103353,0.01378 -0.509874,0.01378 -0.420301,0 -0.523654,-0.02067 -0.103353,-0.02067 -0.103353,-0.168809 0,-0.158475 0.01033,-0.471979 0.01034,-0.316948 0.01034,-0.475423 0,-0.602891 -0.01378,-0.857828 -0.02067,-0.409967 -0.389296,-0.409967 -0.161919,0 -0.323839,0.137804 -0.158474,0.134359 -0.1757,0.299723 -0.01378,0.144694 -0.01378,0.847494 0,0.161919 0.01034,0.492648 0.01034,0.327284 0.01034,0.492649 0,0.113688 -0.09991,0.113688 h -1.043864 q -0.09646,0 -0.09646,-0.141249 0,-0.161919 0.01034,-0.485758 0.01034,-0.323839 0.01034,-0.489204 0,-0.127468 -0.0069,-0.38585 -0.0069,-0.258383 -0.0069,-0.389296 0,-0.492649 -0.375515,-0.492649 -0.151584,0 -0.327284,0.117133 -0.192925,0.127469 -0.192925,0.268718 0,0.313504 0.0034,0.937066 0.0034,0.623562 0.0034,0.933621 0,0.08613 -0.02067,0.106798 -0.02067,0.02067 -0.106798,0.02756 -0.155029,0.01378 -0.489203,0.01378 -0.217041,0 -0.492649,-0.02067 -0.08268,-0.0069 -0.09991,-0.02412 -0.01378,-0.01723 -0.01378,-0.103353 0,-0.275608 0.0034,-0.823378 0.0034,-0.551215 0.0034,-0.826823 0,-0.564996 -0.08268,-1.2712402 -0.0069,-0.041341 -0.0069,-0.062012 0,-0.058567 0.04823,-0.079237 0.07579,-0.031006 0.285943,-0.051676 0.258382,-0.024116 0.306613,-0.031006 0.03445,-0.00689 0.272163,-0.072347 0.16881,-0.048231 0.272162,-0.048231 0.06546,0 0.0689,0.2411567 0.0034,0.2377115 0.02756,0.2377115 0.03445,-0.01378 0.07924,-0.048231 0.310059,-0.2411567 0.489204,-0.3307292 0.265272,-0.1274685 0.575331,-0.1274685 0.316949,0 0.564995,0.1412489 0.279053,0.1584744 0.361735,0.4444168 0.182591,-0.2480464 0.502984,-0.4168561 0.320394,-0.1688096 0.623563,-0.1688096 0.454752,0 0.740695,0.2101508 0.323839,0.2377116 0.323839,0.6786829 0,0.18259 -0.01034,0.551215 -0.01034,0.36518 -0.01034,0.547771 0,0.217041 0.01034,0.654568 0.01034,0.434082 0.01034,0.651123 z"
         style="font-size:7.05555534px;fill:#ffc107;fill-opacity:1;stroke-width:0.26458332"
         id="path850"
         inkscape:connector-curvature="0" />
      <path
         d="m 25.497152,11.066068 q 0,0.347955 -0.223931,0.396186 -0.0379,0.0069 -0.713135,0.07579 -0.406521,0.04479 -1.212673,0.106798 0.04823,0.223932 0.292833,0.341065 0.199815,0.09646 0.454752,0.09646 0.306614,0 0.616672,-0.165365 0.130914,-0.08268 0.261828,-0.165365 0.07235,0.03445 0.241156,0.3514 0.172255,0.316949 0.172255,0.403076 0,0.02412 -0.05168,0.07924 -0.420302,0.451308 -1.305692,0.451308 -0.819932,0 -1.322916,-0.478868 -0.516764,-0.485759 -0.516764,-1.298801 0,-0.792372 0.461642,-1.2988012 0.475423,-0.5236545 1.260905,-0.5236545 0.661459,0 1.123101,0.4823133 0.461643,0.4823134 0.461643,1.1472164 z m -1.205783,-0.21015 q 0,-0.213596 -0.151584,-0.375516 -0.151585,-0.161919 -0.361735,-0.161919 -0.217041,0 -0.35829,0.18259 -0.130914,0.168809 -0.130914,0.396186 0,0.09302 0.09646,0.09302 0.254937,0 0.792372,-0.07924 0.113688,-0.01722 0.113688,-0.05512 z"
         style="font-size:7.05555534px;fill:#ffc107;fill-opacity:1;stroke-width:0.26458332"
         id="path852"
         inkscape:connector-curvature="0" />
      <path
         d="m 27.898383,10.149673 q 0,0.03445 -0.05168,0.09302 -0.09646,-0.02412 -0.192925,-0.02412 -0.203261,0 -0.341064,0.08957 -0.165365,0.103353 -0.165365,0.292834 0,0.120578 0.1757,0.306613 0.265272,0.279053 0.327284,0.375515 0.1757,0.261828 0.1757,0.561551 0,0.1757 -0.0689,0.37207 -0.07924,0.217041 -0.199816,0.316949 -0.254937,0.220486 -0.596001,0.37207 -0.368625,0.158475 -0.678684,0.158475 -0.0689,0 -0.310058,-0.372071 -0.237712,-0.375515 -0.237712,-0.458197 0,-0.03101 0.0379,-0.0379 0.241157,-0.04479 0.485758,-0.08957 0.303169,-0.09646 0.303169,-0.316949 0,-0.151584 -0.1757,-0.351399 -0.313504,-0.347955 -0.327284,-0.368626 -0.1757,-0.248046 -0.1757,-0.523654 0,-0.516764 0.523655,-0.8784993 0.468533,-0.3203939 1.002522,-0.3203939 0.05512,0 0.272163,0.3720703 0.217041,0.3686249 0.217041,0.4306369 z"
         style="font-size:7.05555534px;fill:#ffc107;fill-opacity:1;stroke-width:0.26458332"
         id="path854"
         inkscape:connector-curvature="0" />
    </g>
  </g>
</svg>
